<?xml version="1.0" standalone="no"?>
<!DOCTYPE svg PUBLIC "-//W3C//DTD SVG 20010904//EN"
 "http://www.w3.org/TR/2001/REC-SVG-20010904/DTD/svg10.dtd">
<svg version="1.0" xmlns="http://www.w3.org/2000/svg"
 width="1031.000000pt" height="1280.000000pt" viewBox="0 0 1031.000000 1280.000000"
 preserveAspectRatio="xMidYMid meet">
<metadata>
Created by potrace 1.15, written by Peter Selinger 2001-2017
</metadata>
<g transform="translate(0.000000,1280.000000) scale(0.100000,-0.100000)"
fill="#000000" stroke="none">
<path d="M5210 12790 c-178 -11 -385 -55 -575 -122 -670 -239 -1156 -771
-1284 -1407 -28 -137 -31 -174 -31 -326 0 -157 3 -186 34 -336 90 -426 329
-784 706 -1058 267 -195 572 -316 924 -368 153 -22 192 -24 371 -20 263 8 471
46 710 134 657 239 1145 778 1266 1396 26 133 29 173 29 333 0 161 -3 197 -30
330 -103 516 -467 972 -980 1229 -80 39 -167 79 -195 88 -235 74 -295 89 -453
112 -177 25 -275 28 -492 15z"/>
<path d="M1715 11110 c-60 -13 -122 -35 -185 -67 -127 -63 -255 -188 -317
-308 -103 -198 -113 -421 -30 -620 56 -135 171 -268 294 -341 127 -75 218
-103 372 -112 l105 -7 42 -135 c235 -753 803 -1394 1446 -1630 147 -54 182
-63 358 -89 107 -16 206 -28 220 -25 14 2 102 8 195 14 158 9 184 13 375 64
184 50 228 66 425 158 143 66 258 127 328 174 59 40 107 70 107 68 0 -3 -13
-36 -29 -74 -45 -105 -116 -385 -145 -570 -41 -262 -56 -522 -46 -815 11 -303
28 -473 75 -755 160 -953 556 -1830 1060 -2348 97 -101 99 -103 65 -98 -125
21 -195 25 -450 27 -232 1 -320 -2 -475 -20 -238 -26 -236 -26 -437 -67 -265
-54 -300 -62 -548 -136 -537 -161 -1090 -407 -1665 -741 -241 -140 -662 -418
-881 -583 -93 -69 -175 -128 -181 -131 -8 -3 -13 3 -13 16 0 39 -91 205 -161
292 -141 177 -365 346 -592 447 -498 221 -941 147 -1011 -170 -16 -73 -16 -82
0 -165 112 -577 1102 -1112 1594 -862 106 53 162 125 184 235 9 44 15 91 14
104 -3 19 19 40 132 127 74 57 209 155 300 218 1126 780 2249 1243 3275 1351
226 23 276 25 515 21 197 -4 299 -11 399 -26 73 -12 138 -24 145 -28 6 -3 40
-27 76 -54 36 -26 111 -68 168 -95 72 -33 99 -50 89 -56 -8 -4 -70 -27 -138
-52 -184 -65 -491 -218 -691 -343 -733 -460 -1279 -1126 -1617 -1976 l-43
-107 -34 42 c-51 66 -208 199 -328 278 -439 289 -991 335 -1172 98 -54 -72
-52 -68 -69 -149 -14 -66 -14 -81 0 -157 94 -501 889 -1009 1434 -916 193 33
313 132 344 286 24 114 4 215 -70 359 l-55 107 55 138 c384 970 1059 1708
1962 2144 111 54 279 125 378 160 l178 63 63 -12 c40 -8 97 -10 162 -6 362 23
667 298 858 774 310 776 283 1950 -71 3026 -253 772 -657 1404 -1103 1729 -57
42 -102 76 -100 77 3 0 48 4 100 9 l95 8 200 -56 200 -55 194 -121 c185 -115
204 -130 379 -295 243 -231 448 -488 668 -838 321 -508 552 -1009 814 -1763
42 -121 133 -475 164 -637 l33 -172 -91 6 c-299 19 -590 -147 -724 -413 -53
-105 -67 -172 -67 -319 0 -120 3 -150 23 -210 43 -129 89 -203 187 -300 100
-100 189 -154 325 -196 106 -33 300 -33 413 -1 275 79 475 291 531 564 70 340
-122 692 -448 819 -39 15 -74 33 -78 41 -4 7 -19 81 -33 163 -47 269 -148 616
-320 1095 -59 165 -258 607 -380 844 -189 367 -388 681 -612 966 -150 189
-207 253 -361 400 -176 167 -193 180 -386 301 l-201 125 -205 59 -205 58 -171
-12 c-168 -13 -173 -12 -220 9 -27 12 -98 32 -159 46 -94 21 -124 23 -215 18
-294 -19 -550 -199 -735 -519 l-68 -117 -146 -97 c-108 -72 -202 -124 -363
-199 -197 -92 -235 -106 -425 -156 -198 -52 -217 -56 -394 -66 -178 -10 -194
-9 -360 16 -234 34 -430 103 -638 224 -423 245 -803 692 -1021 1201 -63 149
-135 369 -123 380 5 3 31 12 58 18 76 18 204 85 277 145 199 164 300 434 255
681 -46 254 -218 463 -460 559 -144 57 -285 69 -442 36z"/>
</g>
</svg>
