<?xml version="1.0" standalone="no"?>
<!DOCTYPE svg PUBLIC "-//W3C//DTD SVG 20010904//EN"
 "http://www.w3.org/TR/2001/REC-SVG-20010904/DTD/svg10.dtd">
<svg version="1.0" xmlns="http://www.w3.org/2000/svg"
 width="780.000000pt" height="1280.000000pt" viewBox="0 0 780.000000 1280.000000"
 preserveAspectRatio="xMidYMid meet">
<metadata>
Created by potrace 1.15, written by Peter Selinger 2001-2017
</metadata>
<g transform="translate(0.000000,1280.000000) scale(0.100000,-0.100000)"
fill="#000000" stroke="none">
<path d="M4084 12781 c-595 -84 -1088 -423 -1297 -892 -368 -826 242 -1754
1288 -1960 212 -42 448 -49 661 -21 497 67 925 311 1183 674 142 200 231 477
231 718 0 160 -40 342 -111 506 -210 484 -718 853 -1318 959 -201 35 -455 41
-637 16z"/>
<path d="M416 10574 c-92 -22 -184 -73 -257 -141 -168 -159 -205 -382 -97
-585 36 -69 141 -171 215 -211 109 -58 280 -82 405 -56 52 11 165 60 222 96
27 18 28 17 42 -2 65 -93 1233 -1521 1246 -1523 13 -3 1261 856 1329 914 28
25 30 15 6 -33 -61 -122 -149 -375 -195 -563 -67 -272 -108 -518 -139 -830
-21 -217 -24 -845 -5 -1050 82 -879 296 -1534 609 -1860 l62 -66 -15 -49 c-21
-70 -102 -342 -194 -655 -43 -146 -124 -420 -180 -610 -56 -190 -137 -464
-180 -610 -43 -146 -124 -420 -180 -610 -56 -190 -115 -388 -130 -440 -121
-413 -261 -883 -265 -888 -1 -1 -37 4 -81 12 -436 81 -936 17 -1196 -153 -154
-100 -201 -210 -142 -329 101 -203 544 -346 1019 -329 283 11 504 59 678 150
351 181 288 455 -138 603 -44 15 -81 28 -83 30 -2 1 47 172 108 380 62 209
125 422 140 474 15 52 56 190 90 305 34 116 75 253 90 305 15 52 74 250 130
440 56 190 137 464 180 610 109 369 274 929 322 1090 22 74 47 158 55 187 l15
51 62 -33 c154 -85 320 -79 465 17 24 16 45 27 47 25 2 -2 178 -381 390 -843
213 -461 528 -1145 700 -1518 l312 -679 -76 -34 c-197 -85 -249 -178 -155
-275 197 -203 965 -273 1453 -133 208 60 329 159 306 250 -27 107 -269 212
-580 250 -242 30 -624 16 -822 -30 -37 -9 -71 -12 -75 -8 -4 5 -213 456 -464
1003 -252 547 -567 1233 -701 1523 l-243 528 62 73 c300 343 495 927 584 1741
22 205 25 959 5 1155 -67 634 -181 1089 -365 1455 -61 122 -157 270 -212 327
-19 20 -35 39 -35 41 0 3 24 -3 53 -13 319 -112 418 -149 577 -215 785 -328
1402 -798 1767 -1345 186 -280 317 -607 368 -920 22 -141 22 -140 -25 -140
-169 0 -356 -112 -425 -255 -25 -52 -29 -72 -29 -145 -1 -105 27 -173 104
-254 93 -98 214 -146 370 -146 156 0 277 48 370 146 77 81 105 149 105 254 0
73 -4 93 -30 145 -55 114 -179 208 -313 239 l-57 13 -7 67 c-16 158 -74 384
-145 560 -346 864 -1175 1542 -2418 1978 -110 38 -237 81 -283 94 -45 14 -111
40 -146 60 -252 138 -512 28 -740 -313 l-61 -92 -695 -485 c-382 -267 -697
-485 -700 -485 -3 0 -223 270 -490 600 -267 331 -543 672 -613 759 l-128 159
37 48 c157 204 140 467 -41 648 -69 70 -172 127 -270 150 -76 18 -202 18 -279
-1z"/>
</g>
</svg>
