<?xml version="1.0" standalone="no"?>
<!DOCTYPE svg PUBLIC "-//W3C//DTD SVG 20010904//EN"
 "http://www.w3.org/TR/2001/REC-SVG-20010904/DTD/svg10.dtd">
<svg version="1.0" xmlns="http://www.w3.org/2000/svg"
 width="1280.000000pt" height="831.000000pt" viewBox="0 0 1280.000000 831.000000"
 preserveAspectRatio="xMidYMid meet">
<g transform="translate(0.000000,831.000000) scale(0.100000,-0.100000)"
fill="#000000" stroke="none">
<path d="M9879 8306 c-2 -2 -47 -9 -99 -15 -468 -56 -851 -242 -1148 -556
-211 -223 -344 -483 -403 -790 -21 -107 -18 -418 5 -525 28 -134 82 -286 138
-397 403 -784 1404 -1136 2293 -806 92 34 263 121 348 178 96 63 102 61 66
-22 -11 -26 -23 -80 -26 -118 -8 -103 21 -179 92 -240 29 -25 73 -54 98 -64
25 -11 47 -24 51 -29 5 -8 346 -1639 346 -1656 0 -3 -7 -6 -16 -6 -22 0 -2177
881 -2186 893 -3 6 9 42 28 80 29 56 36 84 41 150 5 76 3 87 -25 147 -83 179
-342 321 -722 395 -74 14 -143 28 -152 31 -9 3 -346 375 -750 827 -403 452
-745 835 -760 850 -19 19 -32 26 -42 20 -8 -4 -238 -298 -510 -653 -273 -355
-503 -646 -511 -648 -8 -2 -27 16 -44 45 -104 169 -415 303 -701 303 -302 0
-572 -140 -645 -335 -23 -62 -26 -79 -20 -145 18 -206 231 -390 525 -456 148
-33 335 -33 476 0 270 63 453 247 433 438 -3 37 -2 71 4 83 6 11 231 307 501
658 318 414 495 637 505 635 25 -5 1434 -1589 1423 -1600 -7 -7 -49 -5 -119 3
-184 23 -789 17 -1063 -10 -1063 -103 -2087 -398 -2718 -783 -138 -84 -290
-201 -350 -269 -24 -27 -48 -49 -52 -49 -5 0 -324 360 -709 799 -386 440 -705
802 -709 805 -5 3 -16 0 -25 -7 -8 -7 -273 -406 -588 -887 -562 -860 -596
-910 -608 -910 -4 0 -44 34 -89 75 -307 279 -824 483 -1172 462 -165 -10 -249
-61 -277 -167 -10 -36 -9 -51 2 -75 7 -16 20 -47 29 -68 23 -56 97 -147 179
-221 253 -228 659 -413 987 -450 276 -31 436 26 454 161 7 55 -19 144 -55 192
-11 13 -19 28 -19 33 0 17 1164 1788 1176 1788 8 0 902 -1014 1311 -1487 l73
-84 -46 -92 c-41 -80 -47 -101 -51 -172 -4 -73 -2 -86 25 -145 35 -75 124
-169 199 -209 26 -14 48 -33 48 -41 0 -18 -3559 -1752 -3595 -1751 -14 1 -54
3 -90 7 -62 5 -68 3 -129 -33 -165 -98 -280 -353 -301 -663 -20 -321 67 -581
233 -691 56 -38 66 -41 113 -37 122 10 251 136 328 318 138 328 119 764 -42
982 -23 32 -42 63 -42 71 0 13 483 250 3135 1539 l470 228 120 -40 c156 -53
364 -95 595 -121 270 -30 782 -30 1110 0 904 84 1785 309 2440 624 275 132
551 317 660 443 25 29 50 55 57 58 7 3 524 -204 1150 -460 625 -255 1143 -462
1150 -460 21 9 45 -117 -237 1242 -91 434 -97 469 -82 478 4 2 43 0 87 -6 103
-14 264 2 420 41 298 73 601 253 768 454 61 74 137 217 137 258 0 13 5 41 11
62 11 40 8 48 -44 158 -21 45 -101 108 -177 139 -245 101 -681 34 -1011 -156
-42 -24 -79 -44 -82 -44 -14 0 -5 22 34 82 97 150 181 363 215 549 24 128 24
380 0 509 -113 618 -608 1122 -1269 1291 -167 42 -556 86 -578 65z"/>
</g>
</svg>
