<?xml version="1.0" standalone="no"?>
<!DOCTYPE svg PUBLIC "-//W3C//DTD SVG 20010904//EN"
 "http://www.w3.org/TR/2001/REC-SVG-20010904/DTD/svg10.dtd">
<svg version="1.0" xmlns="http://www.w3.org/2000/svg"
 width="765.000000pt" height="1280.000000pt" viewBox="0 0 765.000000 1280.000000"
 preserveAspectRatio="xMidYMid meet">
<metadata>
Created by potrace 1.15, written by Peter Selinger 2001-2017
</metadata>
<g transform="translate(0.000000,1280.000000) scale(0.100000,-0.100000)"
fill="#000000" stroke="none">
<path d="M950 12795 c-8 -2 -49 -8 -90 -15 -100 -15 -181 -38 -202 -57 -14
-13 -17 -33 -15 -127 2 -89 -2 -127 -21 -194 -47 -172 -112 -338 -178 -450
-21 -36 -28 -41 -40 -31 -12 10 -22 6 -52 -24 -27 -26 -47 -37 -68 -37 -134 0
-284 -71 -284 -134 0 -32 39 -81 100 -126 95 -70 346 -191 535 -257 312 -109
778 -203 935 -187 52 5 68 3 78 -9 11 -13 6 -19 -30 -39 -24 -13 -44 -31 -46
-40 -5 -25 95 -127 147 -150 70 -32 114 -19 239 66 142 97 169 110 196 98 39
-18 190 -134 302 -233 387 -341 770 -889 917 -1314 48 -139 50 -158 32 -350
-36 -393 -85 -678 -160 -921 -44 -142 -162 -450 -229 -598 l-32 -69 -53 67
c-75 94 -91 129 -91 199 0 80 -23 164 -74 272 -235 492 -956 917 -1636 963
-463 32 -797 -117 -901 -404 -31 -84 -31 -241 -1 -339 128 -414 619 -816 1227
-1004 393 -122 802 -121 1060 3 114 54 205 131 255 216 8 12 20 4 64 -42 31
-32 52 -59 47 -62 -4 -3 0 -44 10 -91 41 -200 54 -369 54 -690 0 -186 -6 -354
-13 -420 -19 -163 -49 -357 -71 -467 -20 -93 -20 -105 -6 -280 24 -302 35
-674 35 -1221 l1 -517 -28 -52 c-15 -29 -65 -92 -110 -141 -47 -49 -84 -98
-85 -110 -3 -47 4 -80 25 -114 l21 -36 -590 -580 c-828 -815 -1545 -1534
-1582 -1586 -18 -24 -32 -54 -32 -66 0 -34 44 -75 79 -75 26 0 60 30 248 221
467 474 1961 1950 1981 1956 11 4 78 -104 113 -184 31 -72 46 -87 73 -77 19 7
23 28 36 181 6 73 13 140 17 149 3 9 7 46 7 83 1 61 3 66 25 69 19 3 22 8 19
33 -4 27 11 45 181 212 102 100 215 206 251 236 64 53 169 111 202 111 54 0
81 -47 81 -140 0 -101 -25 -163 -94 -231 -42 -41 -59 -66 -59 -84 0 -35 42
-75 78 -75 68 0 165 99 206 210 38 105 37 254 -2 344 -44 99 -154 152 -263
126 -119 -28 -214 -95 -426 -302 -134 -131 -166 -158 -191 -158 l-29 0 -7 85
c-7 86 -22 145 -35 145 -5 0 -9 210 -9 467 -2 471 -12 806 -34 1093 -15 203
-15 203 15 360 53 277 77 542 77 844 0 186 -18 446 -39 576 -5 30 -8 56 -6 58
4 4 67 -85 117 -169 141 -232 313 -602 533 -1144 467 -1151 570 -1373 727
-1565 l53 -65 0 -210 c-1 -173 -5 -232 -23 -338 -46 -257 -104 -465 -282
-1022 -153 -476 -205 -627 -297 -860 -136 -345 -251 -556 -350 -646 -28 -25
-58 -61 -66 -80 -13 -31 -23 -38 -96 -63 -156 -54 -169 -91 -58 -167 66 -46
162 -128 155 -134 -2 -2 -95 -8 -208 -14 -1078 -58 -2819 -228 -2874 -281 -19
-18 107 -23 534 -18 396 5 439 4 390 -9 -71 -18 -89 -35 -30 -28 25 3 196 14
380 25 184 11 556 33 825 50 506 30 1250 64 1281 58 10 -2 -119 -27 -287 -57
-529 -92 -885 -168 -978 -207 -34 -14 -35 -16 -16 -27 31 -17 339 -21 683 -8
450 17 975 41 989 46 7 2 13 0 13 -5 0 -6 -6 -10 -12 -10 -26 0 -337 -31 -463
-46 -258 -31 -395 -56 -395 -74 0 -13 48 -13 252 4 95 8 313 20 483 26 364 13
394 16 220 20 -71 2 -113 5 -91 7 25 3 80 29 159 76 l120 72 -54 5 c-38 4 -3
8 121 15 96 6 155 12 130 13 -43 4 -326 -9 -640 -28 -80 -5 -228 -12 -330 -16
-313 -11 -285 -4 730 181 289 53 563 100 610 105 l85 9 -105 -4 c-58 -2 -98
-1 -90 2 8 3 33 18 55 32 33 21 57 27 140 32 162 11 -849 1 -1090 -10 -121 -6
-242 -13 -270 -15 l-50 -5 24 19 c13 11 37 20 55 20 60 0 390 41 405 50 10 7
-52 9 -177 7 -105 -1 -192 1 -192 5 0 15 117 65 200 87 100 26 119 39 102 75
-12 28 -81 63 -310 158 -81 33 -149 62 -151 64 -2 1 12 22 31 46 111 139 257
455 411 888 52 146 269 816 336 1035 116 383 172 692 172 947 l0 138 38 -6
c26 -4 48 -1 71 11 27 14 34 15 44 3 255 -286 622 -826 829 -1218 62 -118 68
-136 116 -340 28 -118 98 -433 156 -700 116 -532 168 -758 190 -819 8 -24 10
-43 4 -46 -14 -9 -11 -41 5 -54 24 -20 240 -70 355 -82 191 -20 364 14 483 94
34 23 93 78 131 122 80 94 128 157 124 161 -2 2 -48 -12 -103 -31 -54 -18
-147 -41 -205 -49 -118 -18 -347 -21 -480 -7 l-87 10 -56 -55 c-30 -30 -60
-54 -64 -54 -15 0 -67 223 -232 985 -39 182 -96 433 -126 558 -49 210 -58 237
-110 335 -210 394 -564 919 -823 1221 -53 61 -81 102 -81 118 0 84 -85 364
-186 609 -333 813 -917 1821 -1320 2278 -44 49 -94 107 -113 128 l-33 39 60
142 c249 583 325 891 383 1558 10 118 10 146 -4 207 -49 217 -233 581 -444
879 -176 249 -457 551 -667 716 -59 47 -117 99 -127 116 -10 17 -23 31 -28 31
-21 0 -171 108 -222 160 -55 57 -58 58 -225 114 -93 31 -175 60 -181 64 -10 6
-10 33 -2 123 24 265 89 449 198 564 57 60 71 85 71 130 0 36 -6 45 -67 103
-211 199 -410 314 -601 347 -74 13 -218 18 -262 10z m275 -3836 c217 -26 434
-94 670 -209 412 -201 700 -480 794 -769 20 -62 30 -209 15 -224 -4 -4 -8 -20
-9 -35 -3 -41 -48 -113 -99 -160 -383 -353 -1419 -136 -1969 412 -277 276
-364 558 -235 758 121 190 434 275 833 227z m2513 -2636 c323 -554 621 -1179
751 -1573 42 -125 73 -250 63 -250 -27 1 -142 180 -232 360 -108 215 -159 336
-475 1110 -84 206 -169 412 -189 458 -19 45 -34 82 -31 82 2 0 53 -84 113
-187z m-234 -5529 c31 -12 15 -21 -41 -23 -103 -3 -490 -31 -798 -56 -288 -24
-911 -56 -1025 -54 -75 2 395 37 1395 104 209 14 387 27 395 29 26 6 58 6 74
0z m1309 -61 c-7 -2 -19 -2 -25 0 -7 3 -2 5 12 5 14 0 19 -2 13 -5z m-3255
-80 c-10 -2 -28 -2 -40 0 -13 2 -5 4 17 4 22 1 32 -1 23 -4z m2465 -350 c-7
-2 -19 -2 -25 0 -7 3 -2 5 12 5 14 0 19 -2 13 -5z"/>
<path d="M1179 8857 c-57 -21 -97 -54 -126 -105 -69 -118 -3 -272 146 -340 65
-30 182 -41 247 -23 58 16 120 64 146 113 62 121 -3 268 -151 336 -67 32 -201
41 -262 19z m192 -109 c22 -6 57 -27 79 -45 103 -88 60 -201 -80 -211 -196
-14 -324 184 -165 254 37 17 115 18 166 2z"/>
<path d="M2194 8318 c-40 -31 -50 -44 -84 -110 -63 -120 -118 -378 -105 -492
15 -135 74 -168 185 -104 259 148 317 474 123 689 -41 46 -75 50 -119 17z m90
-159 c29 -50 31 -61 31 -149 0 -81 -4 -103 -25 -145 -27 -57 -101 -134 -150
-160 l-33 -17 6 103 c3 58 17 147 31 202 26 103 82 230 99 224 6 -2 24 -28 41
-58z"/>
<path d="M1110 8231 c-212 -45 -232 -294 -34 -424 52 -35 156 -61 212 -53 165
22 245 176 165 317 -63 113 -220 186 -343 160z m164 -134 c87 -48 127 -146 82
-196 -83 -91 -306 1 -306 126 0 49 10 64 54 84 50 23 112 18 170 -14z"/>
<path d="M5193 823 c26 -2 67 -2 90 0 23 2 2 3 -48 3 -49 0 -68 -1 -42 -3z"/>
<path d="M5283 773 c9 -2 25 -2 35 0 9 3 1 5 -18 5 -19 0 -27 -2 -17 -5z"/>
<path d="M5168 763 c12 -2 32 -2 45 0 12 2 2 4 -23 4 -25 0 -35 -2 -22 -4z"/>
<path d="M5068 753 c12 -2 32 -2 45 0 12 2 2 4 -23 4 -25 0 -35 -2 -22 -4z"/>
<path d="M5138 523 c7 -3 16 -2 19 1 4 3 -2 6 -13 5 -11 0 -14 -3 -6 -6z"/>
<path d="M4683 503 c20 -2 54 -2 75 0 20 2 3 4 -38 4 -41 0 -58 -2 -37 -4z"/>
<path d="M4583 323 c9 -2 23 -2 30 0 6 3 -1 5 -18 5 -16 0 -22 -2 -12 -5z"/>
<path d="M4393 313 c20 -2 54 -2 75 0 20 2 3 4 -38 4 -41 0 -58 -2 -37 -4z"/>
<path d="M4391 154 c0 -11 3 -14 6 -6 3 7 2 16 -1 19 -3 4 -6 -2 -5 -13z"/>
</g>
</svg>
